%
M48
M72
T01C0.01969
T02C0.02362
T03C0.03150
T04C0.04000
T05C0.06299
T06C0.06516
T07C0.07087
T08C0.09843
T09C0.12598
T10C0.13780
%
T01
X231800Y221800
X241800Y221800
X251800Y221800
X261800Y221800
X271800Y221800
X281800Y221800
X291800Y221800
X291800Y281800
X281800Y281800
X271800Y281800
X261800Y281800
X251800Y281800
X241800Y281800
X231800Y281800
T02
X226800Y281800
X221800Y281800
X215550Y281800
X211800Y286800
X211800Y296800
X201800Y291800
X191800Y296800
X201800Y301800
X196800Y306800
X196800Y311800
X181800Y331800
X191800Y336800
X188050Y343050
X200550Y340550
X213050Y353050
X218050Y353050
X221800Y345550
X226800Y355550
X234300Y359300
X244300Y361800
X243050Y348050
X236800Y341800
X249300Y339300
X256800Y331800
X256800Y326800
X271800Y331800
X271800Y341800
X266800Y351800
X301800Y326800
X311800Y316800
X316800Y331800
X306800Y346800
X306800Y361800
X316800Y361800
X356800Y361800
X381800Y321800
X401800Y316800
X396800Y291800
X396800Y271800
X396800Y256800
X411800Y251800
X421800Y268050
X423050Y291800
X431800Y316800
X416800Y356800
X356800Y311800
X321800Y291800
X306800Y281800
X291800Y301800
X286800Y291800
X276800Y279300
X256800Y281800
X236800Y281800
X276800Y311800
X229300Y371800
X224300Y369300
X214300Y376800
X206800Y366800
X196800Y356800
X191800Y356288
X181800Y376800
X151800Y371800
X151800Y321800
X144300Y299300
X156800Y271800
X111800Y301800
X116800Y321800
X98050Y331800
X86800Y286800
X91800Y271800
X101800Y261800
X101800Y246800
X101800Y226800
X126800Y206800
X111800Y186800
X136800Y176800
X146800Y186800
X146800Y161800
X171800Y186800
X196800Y161800
X226800Y211800
X196800Y226800
X279300Y169300
X291800Y206800
X331800Y251800
X371800Y201800
X386800Y161800
X411800Y171800
X411800Y191800
X441800Y231800
X476800Y251800
X481800Y381800
X391800Y436800
X249300Y414300
X224300Y389300
X56800Y286800
X46800Y306800
X51800Y261800
X51800Y236800
X341800Y161800
T03
X356800Y196800
X376800Y196800
X176800Y196800
X156800Y196800
T04
X81800Y386800
X81800Y396800
X81800Y406800
X81800Y416800
X81800Y426800
X81800Y436800
X381800Y341800
X411800Y341800
X451800Y341800
X481800Y341800
T05
X376800Y171800
X376800Y151800
X356800Y151800
X356800Y171800
X316800Y171800
X316800Y151800
X296800Y151800
X296800Y171800
X236800Y171800
X236800Y151800
X216800Y151800
X216800Y171800
X176800Y171800
X176800Y151800
X156800Y151800
X156800Y171800
T06
X139241Y396800
X139241Y414910
X139241Y433020
X116800Y433020
X116800Y414910
X116800Y396800
T07
X239241Y386800
X266800Y386800
X294359Y386800
X437115Y156800
X456800Y156800
X476485Y156800
X101485Y156800
X81800Y156800
X62115Y156800
T08
X397430Y421800
X417115Y441485
X436800Y421800
X456485Y441485
X476170Y421800
T09
X41800Y151800
X46800Y446800
X501800Y446800
X501800Y151800
T10
X344556Y415540
X189044Y415540
M30
