G75*
%MOIN*%
%OFA0B0*%
%FSLAX25Y25*%
%IPPOS*%
%LPD*%
%AMOC8*
5,1,8,0,0,1.08239X$1,22.5*
%
%ADD10R,0.06299X0.07087*%
%ADD11R,0.42126X0.33858*%
%ADD12R,0.04331X0.13780*%
%ADD13R,0.07087X0.06299*%
%ADD14R,0.14173X0.05906*%
%ADD15R,0.05000X0.02200*%
%ADD16R,0.02200X0.05000*%
%ADD17R,0.06000X0.03000*%
%ADD18C,0.01772*%
%ADD19R,0.14961X0.07874*%
%ADD20R,0.05906X0.07874*%
%ADD21R,0.04724X0.05512*%
%ADD22R,0.05906X0.14173*%
D10*
X0121288Y0186800D03*
X0132312Y0186800D03*
X0072312Y0251800D03*
X0061288Y0251800D03*
X0106288Y0271800D03*
X0117312Y0271800D03*
X0117312Y0291800D03*
X0106288Y0291800D03*
X0106288Y0311800D03*
X0117312Y0311800D03*
X0117312Y0331800D03*
X0106288Y0331800D03*
X0141288Y0331800D03*
X0152312Y0331800D03*
X0152312Y0311800D03*
X0141288Y0311800D03*
X0141288Y0291800D03*
X0152312Y0291800D03*
X0152312Y0356800D03*
X0141288Y0356800D03*
X0231288Y0196800D03*
X0242312Y0196800D03*
X0286288Y0196800D03*
X0297312Y0196800D03*
X0376288Y0246800D03*
X0387312Y0246800D03*
X0387312Y0261800D03*
X0376288Y0261800D03*
X0376288Y0276800D03*
X0387312Y0276800D03*
X0387312Y0291800D03*
X0376288Y0291800D03*
X0406288Y0291800D03*
X0417312Y0291800D03*
X0417312Y0276800D03*
X0406288Y0276800D03*
X0406288Y0261800D03*
X0417312Y0261800D03*
X0412312Y0201800D03*
X0401288Y0201800D03*
X0401288Y0181800D03*
X0412312Y0181800D03*
X0337312Y0301800D03*
X0326288Y0301800D03*
X0326288Y0361800D03*
X0337312Y0361800D03*
D11*
X0451800Y0286800D03*
X0066800Y0341800D03*
D12*
X0066800Y0300068D03*
X0056800Y0300068D03*
X0076800Y0300068D03*
X0441800Y0245068D03*
X0451800Y0245068D03*
X0461800Y0245068D03*
D13*
X0466800Y0222312D03*
X0466800Y0211288D03*
X0451800Y0211288D03*
X0451800Y0222312D03*
X0436800Y0222312D03*
X0436800Y0211288D03*
X0286800Y0311288D03*
X0286800Y0322312D03*
X0286800Y0341288D03*
X0286800Y0352312D03*
X0206800Y0352312D03*
X0206800Y0341288D03*
X0206800Y0322312D03*
X0206800Y0311288D03*
X0181800Y0311288D03*
X0181800Y0322312D03*
X0181800Y0341288D03*
X0181800Y0352312D03*
D14*
X0386800Y0381800D03*
X0386800Y0399517D03*
X0411800Y0399517D03*
X0411800Y0381800D03*
X0436800Y0381800D03*
X0436800Y0399517D03*
X0461800Y0399517D03*
X0461800Y0381800D03*
D15*
X0263700Y0347824D03*
X0263700Y0344674D03*
X0263700Y0341524D03*
X0263700Y0338375D03*
X0263700Y0335225D03*
X0263700Y0332076D03*
X0263700Y0328926D03*
X0263700Y0325776D03*
X0229900Y0325776D03*
X0229900Y0328926D03*
X0229900Y0332076D03*
X0229900Y0335225D03*
X0229900Y0338375D03*
X0229900Y0341524D03*
X0229900Y0344674D03*
X0229900Y0347824D03*
D16*
X0235776Y0353700D03*
X0238926Y0353700D03*
X0242076Y0353700D03*
X0245225Y0353700D03*
X0248375Y0353700D03*
X0251524Y0353700D03*
X0254674Y0353700D03*
X0257824Y0353700D03*
X0257824Y0319900D03*
X0254674Y0319900D03*
X0251524Y0319900D03*
X0248375Y0319900D03*
X0245225Y0319900D03*
X0242076Y0319900D03*
X0238926Y0319900D03*
X0235776Y0319900D03*
D17*
X0115800Y0154300D03*
X0115800Y0169300D03*
X0137800Y0169300D03*
X0137800Y0154300D03*
X0255800Y0149300D03*
X0255800Y0164300D03*
X0277800Y0164300D03*
X0277800Y0149300D03*
X0395800Y0149300D03*
X0395800Y0164300D03*
X0417800Y0164300D03*
X0417800Y0149300D03*
D18*
X0226524Y0298936D02*
X0226524Y0304664D01*
X0221800Y0304664D02*
X0221800Y0298936D01*
X0217076Y0298936D02*
X0217076Y0304664D01*
D19*
X0331800Y0346800D03*
D20*
X0331800Y0321997D03*
X0322745Y0321997D03*
X0340855Y0321997D03*
D21*
X0272706Y0181800D03*
X0260894Y0181800D03*
D22*
X0401800Y0221800D03*
X0419517Y0221800D03*
X0421800Y0241800D03*
X0404083Y0241800D03*
X0124517Y0356800D03*
X0106800Y0356800D03*
X0076800Y0271800D03*
X0059083Y0271800D03*
M02*
