G75*
%MOIN*%
%OFA0B0*%
%FSLAX25Y25*%
%IPPOS*%
%LPD*%
%AMOC8*
5,1,8,0,0,1.08239X$1,22.5*
%
%ADD10C,0.10630*%
%ADD11C,0.09449*%
%ADD12C,0.07400*%
%ADD13C,0.03969*%
%ADD14C,0.06600*%
%ADD15R,0.06500X0.06500*%
%ADD16C,0.09774*%
%ADD17C,0.13843*%
%ADD18C,0.10000*%
%ADD19R,0.03962X0.03962*%
%ADD20C,0.06600*%
%ADD21C,0.01600*%
%ADD22C,0.05000*%
%ADD23C,0.08600*%
%ADD24C,0.02400*%
%ADD25C,0.05600*%
%ADD26C,0.03200*%
%ADD27C,0.01000*%
D10*
X0062115Y0156800D03*
X0081800Y0156800D03*
X0101485Y0156800D03*
X0239241Y0386800D03*
X0266800Y0386800D03*
X0294359Y0386800D03*
X0437115Y0156800D03*
X0456800Y0156800D03*
X0476485Y0156800D03*
D11*
X0376800Y0151800D03*
X0376800Y0171800D03*
X0356800Y0171800D03*
X0356800Y0151800D03*
X0316800Y0151800D03*
X0316800Y0171800D03*
X0296800Y0171800D03*
X0296800Y0151800D03*
X0236800Y0151800D03*
X0236800Y0171800D03*
X0216800Y0171800D03*
X0216800Y0151800D03*
X0176800Y0151800D03*
X0176800Y0171800D03*
X0156800Y0171800D03*
X0156800Y0151800D03*
D12*
X0156800Y0196800D03*
X0176800Y0196800D03*
X0356800Y0196800D03*
X0376800Y0196800D03*
X0081800Y0386800D03*
X0081800Y0396800D03*
X0081800Y0406800D03*
X0081800Y0416800D03*
X0081800Y0426800D03*
X0081800Y0436800D03*
D13*
X0231800Y0281800D03*
X0241800Y0281800D03*
X0251800Y0281800D03*
X0261800Y0281800D03*
X0271800Y0281800D03*
X0281800Y0281800D03*
X0291800Y0281800D03*
X0291800Y0221800D03*
X0281800Y0221800D03*
X0271800Y0221800D03*
X0261800Y0221800D03*
X0251800Y0221800D03*
X0241800Y0221800D03*
X0231800Y0221800D03*
D14*
X0381800Y0341800D03*
X0451800Y0341800D03*
D15*
X0481800Y0341800D03*
X0411800Y0341800D03*
D16*
X0139241Y0396800D03*
X0139241Y0414910D03*
X0139241Y0433020D03*
X0116800Y0433020D03*
X0116800Y0414910D03*
X0116800Y0396800D03*
D17*
X0397430Y0421800D03*
X0417115Y0441485D03*
X0436800Y0421800D03*
X0456485Y0441485D03*
X0476170Y0421800D03*
D18*
X0426170Y0371800D01*
X0254241Y0371800D01*
X0239241Y0386800D01*
X0224300Y0389300D02*
X0249300Y0414300D01*
X0249359Y0431800D02*
X0156131Y0431800D01*
X0139241Y0414910D01*
X0156800Y0376800D02*
X0181800Y0376800D01*
X0156800Y0376800D02*
X0151800Y0371800D01*
X0086800Y0286800D02*
X0091800Y0281800D01*
X0111800Y0281800D01*
X0181800Y0281800D01*
X0191800Y0271800D01*
X0331800Y0271800D01*
X0381800Y0321800D01*
X0381800Y0341800D02*
X0401800Y0321800D01*
X0401800Y0316800D01*
X0396800Y0291800D02*
X0376800Y0291800D01*
X0371800Y0286800D01*
X0371800Y0251800D01*
X0371800Y0201800D01*
X0411800Y0191800D02*
X0481800Y0191800D01*
X0491800Y0201800D01*
X0491800Y0241800D01*
X0491800Y0331800D01*
X0481800Y0341800D01*
X0466800Y0326800D01*
X0441800Y0326800D01*
X0431800Y0316800D01*
X0436800Y0291800D02*
X0423050Y0291800D01*
X0436800Y0291800D02*
X0476800Y0251800D01*
X0491800Y0241800D02*
X0481800Y0231800D01*
X0441800Y0231800D01*
X0481800Y0341800D02*
X0491800Y0341800D01*
X0496800Y0346800D01*
X0496800Y0421800D01*
X0481800Y0436800D01*
X0471800Y0436800D01*
X0461800Y0426800D01*
X0441800Y0426800D01*
X0436800Y0421800D01*
X0431800Y0426800D01*
X0411800Y0426800D01*
X0401800Y0436800D01*
X0391800Y0436800D01*
X0416800Y0356800D02*
X0466800Y0356800D01*
X0481800Y0371800D01*
X0481800Y0381800D01*
X0294359Y0386800D02*
X0249359Y0431800D01*
X0279300Y0169300D02*
X0294300Y0169300D01*
X0296800Y0171800D01*
X0316800Y0171800D01*
X0316800Y0151800D01*
X0296800Y0151800D01*
D19*
X0279300Y0169300D03*
X0291800Y0206800D03*
X0331800Y0251800D03*
X0306800Y0281800D03*
X0321800Y0291800D03*
X0311800Y0316800D03*
X0301800Y0326800D03*
X0316800Y0331800D03*
X0306800Y0346800D03*
X0306800Y0361800D03*
X0316800Y0361800D03*
X0356800Y0361800D03*
X0381800Y0321800D03*
X0401800Y0316800D03*
X0396800Y0291800D03*
X0396800Y0271800D03*
X0396800Y0256800D03*
X0411800Y0251800D03*
X0421800Y0268050D03*
X0423050Y0291800D03*
X0431800Y0316800D03*
X0416800Y0356800D03*
X0356800Y0311800D03*
X0291800Y0301800D03*
X0286800Y0291800D03*
X0276800Y0279300D03*
X0256800Y0281800D03*
X0236800Y0281800D03*
X0226800Y0281800D03*
X0221800Y0281800D03*
X0215550Y0281800D03*
X0211800Y0286800D03*
X0211800Y0296800D03*
X0201800Y0291800D03*
X0191800Y0296800D03*
X0201800Y0301800D03*
X0196800Y0306800D03*
X0196800Y0311800D03*
X0181800Y0331800D03*
X0191800Y0336800D03*
X0188050Y0343050D03*
X0200550Y0340550D03*
X0213050Y0353050D03*
X0218050Y0353050D03*
X0221800Y0345550D03*
X0226800Y0355550D03*
X0234300Y0359300D03*
X0244300Y0361800D03*
X0243050Y0348050D03*
X0236800Y0341800D03*
X0249300Y0339300D03*
X0256800Y0331800D03*
X0256800Y0326800D03*
X0271800Y0331800D03*
X0271800Y0341800D03*
X0266800Y0351800D03*
X0276800Y0311800D03*
X0229300Y0371800D03*
X0224300Y0369300D03*
X0214300Y0376800D03*
X0206800Y0366800D03*
X0196800Y0356800D03*
X0191800Y0356288D03*
X0181800Y0376800D03*
X0151800Y0371800D03*
X0151800Y0321800D03*
X0144300Y0299300D03*
X0156800Y0271800D03*
X0111800Y0301800D03*
X0116800Y0321800D03*
X0098050Y0331800D03*
X0086800Y0286800D03*
X0091800Y0271800D03*
X0101800Y0261800D03*
X0101800Y0246800D03*
X0101800Y0226800D03*
X0126800Y0206800D03*
X0111800Y0186800D03*
X0136800Y0176800D03*
X0146800Y0186800D03*
X0146800Y0161800D03*
X0171800Y0186800D03*
X0196800Y0161800D03*
X0226800Y0211800D03*
X0196800Y0226800D03*
X0056800Y0286800D03*
X0046800Y0306800D03*
X0051800Y0261800D03*
X0051800Y0236800D03*
X0224300Y0389300D03*
X0249300Y0414300D03*
X0391800Y0436800D03*
X0481800Y0381800D03*
X0476800Y0251800D03*
X0441800Y0231800D03*
X0411800Y0191800D03*
X0411800Y0171800D03*
X0386800Y0161800D03*
X0371800Y0201800D03*
X0341800Y0161800D03*
D20*
X0336800Y0341800D02*
X0316800Y0361800D01*
X0336800Y0341800D02*
X0381800Y0341800D01*
X0111800Y0281800D02*
X0091800Y0261800D01*
X0051800Y0261800D01*
D21*
X0126800Y0206800D02*
X0131800Y0211800D01*
X0226800Y0211800D01*
X0206800Y0216800D02*
X0266800Y0216800D01*
X0271800Y0221800D01*
X0276800Y0279300D02*
X0276800Y0296800D01*
X0271800Y0301800D01*
X0271800Y0331800D01*
X0276800Y0336800D02*
X0271800Y0341800D01*
X0276800Y0336800D02*
X0276800Y0311800D01*
X0291800Y0301800D02*
X0296800Y0301800D01*
X0311800Y0316800D01*
X0301800Y0326800D02*
X0301800Y0356800D01*
X0296800Y0361800D01*
X0244300Y0361800D01*
X0241800Y0361800D01*
X0239300Y0364300D01*
X0219300Y0364300D01*
X0216800Y0366800D01*
X0206800Y0366800D01*
X0211800Y0371800D02*
X0196800Y0386800D01*
X0116800Y0386800D01*
X0086800Y0416800D01*
X0081800Y0416800D01*
X0081800Y0406800D02*
X0176800Y0311800D01*
X0196800Y0311800D01*
X0198050Y0308050D02*
X0196800Y0306800D01*
X0198050Y0308050D02*
X0199300Y0308050D01*
X0200550Y0309300D01*
X0200550Y0328050D01*
X0191800Y0336800D01*
X0186800Y0341800D02*
X0188050Y0343050D01*
X0186800Y0341800D02*
X0181800Y0331800D01*
X0191800Y0346800D02*
X0191800Y0356288D01*
X0196800Y0356800D02*
X0225550Y0356800D01*
X0226800Y0355550D01*
X0234300Y0359300D02*
X0243050Y0348050D01*
X0239300Y0341800D02*
X0236800Y0341800D01*
X0239300Y0341800D02*
X0246800Y0334300D01*
X0246800Y0331800D01*
X0241800Y0326800D01*
X0236800Y0326800D01*
X0236800Y0281800D01*
X0226800Y0281800D02*
X0226800Y0321800D01*
X0221800Y0326800D01*
X0221800Y0345550D01*
X0218050Y0353050D02*
X0218050Y0285550D01*
X0221800Y0281800D01*
X0215550Y0281800D02*
X0196800Y0281800D01*
X0156800Y0321800D01*
X0151800Y0321800D01*
X0191800Y0296800D02*
X0211800Y0296800D01*
X0209300Y0301800D02*
X0214300Y0306800D01*
X0214300Y0351800D01*
X0213050Y0353050D01*
X0200550Y0340550D02*
X0198050Y0340550D01*
X0191800Y0346800D01*
X0211800Y0371800D02*
X0221800Y0371800D01*
X0224300Y0369300D01*
X0229300Y0371800D02*
X0194300Y0406800D01*
X0111800Y0406800D01*
X0091800Y0426800D01*
X0081800Y0426800D01*
X0201800Y0301800D02*
X0209300Y0301800D01*
X0201800Y0291800D02*
X0206800Y0286800D01*
X0211800Y0286800D01*
X0251800Y0291800D02*
X0256800Y0286800D01*
X0256800Y0281800D01*
X0251800Y0291800D02*
X0251800Y0326800D01*
X0256800Y0326800D01*
X0256800Y0331800D02*
X0254300Y0334300D01*
X0254300Y0339300D01*
X0266800Y0351800D01*
X0254300Y0339300D02*
X0249300Y0339300D01*
X0286800Y0291800D02*
X0296800Y0291800D01*
X0306800Y0281800D01*
X0356800Y0311800D02*
X0306800Y0361800D01*
X0356800Y0361800D02*
X0371800Y0361800D01*
X0411800Y0321800D01*
X0411800Y0276800D01*
X0406800Y0271800D01*
X0396800Y0271800D01*
X0411800Y0171800D02*
X0422115Y0171800D01*
X0437115Y0156800D01*
X0206800Y0216800D02*
X0196800Y0226800D01*
X0171800Y0186800D02*
X0146800Y0186800D01*
D22*
X0111800Y0301800D02*
X0111800Y0316800D01*
X0116800Y0321800D01*
X0291800Y0301800D02*
X0306800Y0301800D01*
X0316800Y0291800D01*
X0321800Y0291800D01*
X0316800Y0331800D02*
X0316800Y0336800D01*
X0306800Y0346800D01*
X0396800Y0261800D02*
X0396800Y0256800D01*
X0396800Y0261800D02*
X0401800Y0266800D01*
X0421800Y0268050D01*
D23*
X0411800Y0191800D02*
X0406800Y0191800D01*
X0391800Y0176800D01*
X0391800Y0166800D01*
X0386800Y0161800D01*
X0341800Y0161800D01*
D24*
X0136800Y0176800D02*
X0121800Y0176800D01*
X0111800Y0186800D01*
X0101800Y0157115D02*
X0101485Y0156800D01*
X0101800Y0157115D02*
X0101800Y0226800D01*
X0101800Y0246800D02*
X0101485Y0247115D01*
X0101485Y0251485D01*
X0101800Y0251800D01*
X0101800Y0261800D01*
D25*
X0121800Y0236800D02*
X0051800Y0236800D01*
X0121800Y0236800D02*
X0156800Y0271800D01*
X0146800Y0161800D02*
X0196800Y0161800D01*
D26*
X0291800Y0206800D02*
X0296800Y0211800D01*
X0326800Y0211800D01*
X0331800Y0216800D01*
X0331800Y0251800D01*
X0144300Y0299300D02*
X0126800Y0316800D01*
X0121800Y0316800D01*
X0116800Y0321800D01*
D27*
X0098050Y0331800D02*
X0076800Y0311800D01*
X0051800Y0311800D01*
X0046800Y0306800D01*
X0056800Y0286800D02*
X0076800Y0286800D01*
X0091800Y0271800D01*
X0371800Y0251800D02*
X0411800Y0251800D01*
M02*
