G75*
%MOIN*%
%OFA0B0*%
%FSLAX25Y25*%
%IPPOS*%
%LPD*%
%AMOC8*
5,1,8,0,0,1.08239X$1,22.5*
%
%ADD10C,0.13398*%
%ADD11C,0.11430*%
%ADD12C,0.14580*%
%ADD13C,0.10249*%
%ADD14C,0.08200*%
%ADD15C,0.04769*%
%ADD16C,0.07400*%
%ADD17R,0.07300X0.07300*%
%ADD18C,0.10574*%
%ADD19C,0.14643*%
%ADD20R,0.04762X0.04762*%
D10*
X0041800Y0151800D03*
X0046800Y0446800D03*
X0501800Y0446800D03*
X0501800Y0151800D03*
D11*
X0476485Y0156800D03*
X0456800Y0156800D03*
X0437115Y0156800D03*
X0294359Y0386800D03*
X0266800Y0386800D03*
X0239241Y0386800D03*
X0101485Y0156800D03*
X0081800Y0156800D03*
X0062115Y0156800D03*
D12*
X0189044Y0415540D03*
X0344556Y0415540D03*
D13*
X0356800Y0171800D03*
X0356800Y0151800D03*
X0376800Y0151800D03*
X0376800Y0171800D03*
X0316800Y0171800D03*
X0316800Y0151800D03*
X0296800Y0151800D03*
X0296800Y0171800D03*
X0236800Y0171800D03*
X0236800Y0151800D03*
X0216800Y0151800D03*
X0216800Y0171800D03*
X0176800Y0171800D03*
X0176800Y0151800D03*
X0156800Y0151800D03*
X0156800Y0171800D03*
D14*
X0156800Y0196800D03*
X0176800Y0196800D03*
X0356800Y0196800D03*
X0376800Y0196800D03*
X0081800Y0386800D03*
X0081800Y0396800D03*
X0081800Y0406800D03*
X0081800Y0416800D03*
X0081800Y0426800D03*
X0081800Y0436800D03*
D15*
X0231800Y0281800D03*
X0241800Y0281800D03*
X0251800Y0281800D03*
X0261800Y0281800D03*
X0271800Y0281800D03*
X0281800Y0281800D03*
X0291800Y0281800D03*
X0291800Y0221800D03*
X0281800Y0221800D03*
X0271800Y0221800D03*
X0261800Y0221800D03*
X0251800Y0221800D03*
X0241800Y0221800D03*
X0231800Y0221800D03*
D16*
X0381800Y0341800D03*
X0451800Y0341800D03*
D17*
X0481800Y0341800D03*
X0411800Y0341800D03*
D18*
X0139241Y0396800D03*
X0139241Y0414910D03*
X0139241Y0433020D03*
X0116800Y0433020D03*
X0116800Y0414910D03*
X0116800Y0396800D03*
D19*
X0397430Y0421800D03*
X0417115Y0441485D03*
X0436800Y0421800D03*
X0456485Y0441485D03*
X0476170Y0421800D03*
D20*
X0481800Y0381800D03*
X0431800Y0316800D03*
X0423050Y0291800D03*
X0421800Y0268050D03*
X0411800Y0251800D03*
X0396800Y0256800D03*
X0396800Y0271800D03*
X0396800Y0291800D03*
X0401800Y0316800D03*
X0381800Y0321800D03*
X0356800Y0311800D03*
X0321800Y0291800D03*
X0306800Y0281800D03*
X0291800Y0301800D03*
X0286800Y0291800D03*
X0276800Y0279300D03*
X0256800Y0281800D03*
X0236800Y0281800D03*
X0226800Y0281800D03*
X0221800Y0281800D03*
X0215550Y0281800D03*
X0211800Y0286800D03*
X0211800Y0296800D03*
X0201800Y0291800D03*
X0191800Y0296800D03*
X0201800Y0301800D03*
X0196800Y0306800D03*
X0196800Y0311800D03*
X0181800Y0331800D03*
X0191800Y0336800D03*
X0188050Y0343050D03*
X0200550Y0340550D03*
X0213050Y0353050D03*
X0218050Y0353050D03*
X0221800Y0345550D03*
X0226800Y0355550D03*
X0234300Y0359300D03*
X0244300Y0361800D03*
X0243050Y0348050D03*
X0236800Y0341800D03*
X0249300Y0339300D03*
X0256800Y0331800D03*
X0256800Y0326800D03*
X0271800Y0331800D03*
X0271800Y0341800D03*
X0266800Y0351800D03*
X0301800Y0326800D03*
X0311800Y0316800D03*
X0316800Y0331800D03*
X0306800Y0346800D03*
X0306800Y0361800D03*
X0316800Y0361800D03*
X0356800Y0361800D03*
X0416800Y0356800D03*
X0391800Y0436800D03*
X0276800Y0311800D03*
X0229300Y0371800D03*
X0224300Y0369300D03*
X0214300Y0376800D03*
X0206800Y0366800D03*
X0196800Y0356800D03*
X0191800Y0356288D03*
X0181800Y0376800D03*
X0151800Y0371800D03*
X0151800Y0321800D03*
X0144300Y0299300D03*
X0156800Y0271800D03*
X0111800Y0301800D03*
X0116800Y0321800D03*
X0098050Y0331800D03*
X0086800Y0286800D03*
X0091800Y0271800D03*
X0101800Y0261800D03*
X0101800Y0246800D03*
X0101800Y0226800D03*
X0126800Y0206800D03*
X0111800Y0186800D03*
X0136800Y0176800D03*
X0146800Y0186800D03*
X0146800Y0161800D03*
X0171800Y0186800D03*
X0196800Y0161800D03*
X0226800Y0211800D03*
X0196800Y0226800D03*
X0279300Y0169300D03*
X0291800Y0206800D03*
X0331800Y0251800D03*
X0371800Y0201800D03*
X0386800Y0161800D03*
X0411800Y0171800D03*
X0411800Y0191800D03*
X0441800Y0231800D03*
X0476800Y0251800D03*
X0341800Y0161800D03*
X0224300Y0389300D03*
X0249300Y0414300D03*
X0056800Y0286800D03*
X0046800Y0306800D03*
X0051800Y0261800D03*
X0051800Y0236800D03*
M02*
