G75*
%MOIN*%
%OFA0B0*%
%FSLAX25Y25*%
%IPPOS*%
%LPD*%
%AMOC8*
5,1,8,0,0,1.08239X$1,22.5*
%
%ADD10R,0.06299X0.07087*%
%ADD11R,0.42126X0.33858*%
%ADD12R,0.04331X0.13780*%
%ADD13R,0.07087X0.06299*%
%ADD14R,0.14173X0.05906*%
%ADD15R,0.05000X0.02200*%
%ADD16R,0.02200X0.05000*%
%ADD17R,0.06000X0.03000*%
%ADD18C,0.01772*%
%ADD19R,0.14961X0.07874*%
%ADD20R,0.05906X0.07874*%
%ADD21R,0.04724X0.05512*%
%ADD22R,0.05906X0.14173*%
D10*
X0090488Y0098927D03*
X0101512Y0098927D03*
X0041512Y0163927D03*
X0030488Y0163927D03*
X0075488Y0183927D03*
X0086512Y0183927D03*
X0086512Y0203927D03*
X0075488Y0203927D03*
X0075488Y0223927D03*
X0086512Y0223927D03*
X0086512Y0243927D03*
X0075488Y0243927D03*
X0110488Y0243927D03*
X0121512Y0243927D03*
X0121512Y0223927D03*
X0110488Y0223927D03*
X0110488Y0203927D03*
X0121512Y0203927D03*
X0121512Y0268927D03*
X0110488Y0268927D03*
X0200488Y0108927D03*
X0211512Y0108927D03*
X0255488Y0108927D03*
X0266512Y0108927D03*
X0345488Y0158927D03*
X0356512Y0158927D03*
X0356512Y0173927D03*
X0345488Y0173927D03*
X0345488Y0188927D03*
X0356512Y0188927D03*
X0356512Y0203927D03*
X0345488Y0203927D03*
X0375488Y0203927D03*
X0386512Y0203927D03*
X0386512Y0188927D03*
X0375488Y0188927D03*
X0375488Y0173927D03*
X0386512Y0173927D03*
X0381512Y0113927D03*
X0370488Y0113927D03*
X0370488Y0093927D03*
X0381512Y0093927D03*
X0306512Y0213927D03*
X0295488Y0213927D03*
X0295488Y0273927D03*
X0306512Y0273927D03*
D11*
X0421000Y0198927D03*
X0036000Y0253927D03*
D12*
X0036000Y0212195D03*
X0026000Y0212195D03*
X0046000Y0212195D03*
X0411000Y0157195D03*
X0421000Y0157195D03*
X0431000Y0157195D03*
D13*
X0436000Y0134439D03*
X0436000Y0123415D03*
X0421000Y0123415D03*
X0421000Y0134439D03*
X0406000Y0134439D03*
X0406000Y0123415D03*
X0256000Y0223415D03*
X0256000Y0234439D03*
X0256000Y0253415D03*
X0256000Y0264439D03*
X0176000Y0264439D03*
X0176000Y0253415D03*
X0176000Y0234439D03*
X0176000Y0223415D03*
X0151000Y0223415D03*
X0151000Y0234439D03*
X0151000Y0253415D03*
X0151000Y0264439D03*
D14*
X0356000Y0293927D03*
X0356000Y0311644D03*
X0381000Y0311644D03*
X0381000Y0293927D03*
X0406000Y0293927D03*
X0406000Y0311644D03*
X0431000Y0311644D03*
X0431000Y0293927D03*
D15*
X0232900Y0259951D03*
X0232900Y0256801D03*
X0232900Y0253652D03*
X0232900Y0250502D03*
X0232900Y0247352D03*
X0232900Y0244203D03*
X0232900Y0241053D03*
X0232900Y0237904D03*
X0199100Y0237904D03*
X0199100Y0241053D03*
X0199100Y0244203D03*
X0199100Y0247352D03*
X0199100Y0250502D03*
X0199100Y0253652D03*
X0199100Y0256801D03*
X0199100Y0259951D03*
D16*
X0204976Y0265827D03*
X0208126Y0265827D03*
X0211276Y0265827D03*
X0214425Y0265827D03*
X0217575Y0265827D03*
X0220724Y0265827D03*
X0223874Y0265827D03*
X0227024Y0265827D03*
X0227024Y0232027D03*
X0223874Y0232027D03*
X0220724Y0232027D03*
X0217575Y0232027D03*
X0214425Y0232027D03*
X0211276Y0232027D03*
X0208126Y0232027D03*
X0204976Y0232027D03*
D17*
X0085000Y0066427D03*
X0085000Y0081427D03*
X0107000Y0081427D03*
X0107000Y0066427D03*
X0225000Y0061427D03*
X0225000Y0076427D03*
X0247000Y0076427D03*
X0247000Y0061427D03*
X0365000Y0061427D03*
X0365000Y0076427D03*
X0387000Y0076427D03*
X0387000Y0061427D03*
D18*
X0195724Y0211063D02*
X0195724Y0216791D01*
X0191000Y0216791D02*
X0191000Y0211063D01*
X0186276Y0211063D02*
X0186276Y0216791D01*
D19*
X0301000Y0258927D03*
D20*
X0301000Y0234124D03*
X0291945Y0234124D03*
X0310055Y0234124D03*
D21*
X0241906Y0093927D03*
X0230094Y0093927D03*
D22*
X0371000Y0133927D03*
X0388717Y0133927D03*
X0391000Y0153927D03*
X0373283Y0153927D03*
X0093717Y0268927D03*
X0076000Y0268927D03*
X0046000Y0183927D03*
X0028283Y0183927D03*
M02*
