G75*
%MOIN*%
%OFA0B0*%
%FSLAX25Y25*%
%IPPOS*%
%LPD*%
%AMOC8*
5,1,8,0,0,1.08239X$1,22.5*
%
%ADD10C,0.10630*%
%ADD11C,0.09449*%
%ADD12C,0.07400*%
%ADD13C,0.03969*%
%ADD14C,0.06600*%
%ADD15R,0.06500X0.06500*%
%ADD16C,0.09774*%
%ADD17C,0.13843*%
%ADD18C,0.10000*%
%ADD19R,0.03962X0.03962*%
%ADD20C,0.06600*%
%ADD21C,0.01600*%
%ADD22C,0.05000*%
%ADD23C,0.08600*%
%ADD24C,0.02400*%
%ADD25C,0.05600*%
%ADD26C,0.03200*%
%ADD27C,0.01000*%
D10*
X0031315Y0068927D03*
X0051000Y0068927D03*
X0070685Y0068927D03*
X0208441Y0298927D03*
X0236000Y0298927D03*
X0263559Y0298927D03*
X0406315Y0068927D03*
X0426000Y0068927D03*
X0445685Y0068927D03*
D11*
X0346000Y0063927D03*
X0326000Y0063927D03*
X0326000Y0083927D03*
X0346000Y0083927D03*
X0286000Y0083927D03*
X0266000Y0083927D03*
X0266000Y0063927D03*
X0286000Y0063927D03*
X0206000Y0063927D03*
X0186000Y0063927D03*
X0186000Y0083927D03*
X0206000Y0083927D03*
X0146000Y0083927D03*
X0126000Y0083927D03*
X0126000Y0063927D03*
X0146000Y0063927D03*
D12*
X0146000Y0108927D03*
X0126000Y0108927D03*
X0326000Y0108927D03*
X0346000Y0108927D03*
X0051000Y0298927D03*
X0051000Y0308927D03*
X0051000Y0318927D03*
X0051000Y0328927D03*
X0051000Y0338927D03*
X0051000Y0348927D03*
D13*
X0201000Y0193927D03*
X0211000Y0193927D03*
X0221000Y0193927D03*
X0231000Y0193927D03*
X0241000Y0193927D03*
X0251000Y0193927D03*
X0261000Y0193927D03*
X0261000Y0133927D03*
X0251000Y0133927D03*
X0241000Y0133927D03*
X0231000Y0133927D03*
X0221000Y0133927D03*
X0211000Y0133927D03*
X0201000Y0133927D03*
D14*
X0351000Y0253927D03*
X0421000Y0253927D03*
D15*
X0451000Y0253927D03*
X0381000Y0253927D03*
D16*
X0108441Y0308927D03*
X0108441Y0327037D03*
X0108441Y0345148D03*
X0086000Y0345148D03*
X0086000Y0327037D03*
X0086000Y0308927D03*
D17*
X0366630Y0333927D03*
X0386315Y0353612D03*
X0406000Y0333927D03*
X0425685Y0353612D03*
X0445370Y0333927D03*
D18*
X0395370Y0283927D01*
X0223441Y0283927D01*
X0208441Y0298927D01*
X0193500Y0301427D02*
X0218500Y0326427D01*
X0218559Y0343927D02*
X0125331Y0343927D01*
X0108441Y0327037D01*
X0126000Y0288927D02*
X0151000Y0288927D01*
X0126000Y0288927D02*
X0121000Y0283927D01*
X0218559Y0343927D02*
X0263559Y0298927D01*
X0351000Y0253927D02*
X0371000Y0233927D01*
X0371000Y0228927D01*
X0351000Y0233927D02*
X0301000Y0183927D01*
X0161000Y0183927D01*
X0151000Y0193927D01*
X0081000Y0193927D01*
X0061000Y0193927D01*
X0056000Y0198927D01*
X0248500Y0081427D02*
X0263500Y0081427D01*
X0266000Y0083927D01*
X0286000Y0083927D01*
X0286000Y0063927D01*
X0266000Y0063927D01*
X0341000Y0113927D02*
X0341000Y0163927D01*
X0341000Y0198927D01*
X0346000Y0203927D01*
X0366000Y0203927D01*
X0392250Y0203927D02*
X0406000Y0203927D01*
X0446000Y0163927D01*
X0461000Y0153927D02*
X0461000Y0113927D01*
X0451000Y0103927D01*
X0381000Y0103927D01*
X0411000Y0143927D02*
X0451000Y0143927D01*
X0461000Y0153927D01*
X0461000Y0243927D01*
X0451000Y0253927D01*
X0436000Y0238927D01*
X0411000Y0238927D01*
X0401000Y0228927D01*
X0386000Y0268927D02*
X0436000Y0268927D01*
X0451000Y0283927D01*
X0451000Y0293927D01*
X0466000Y0258927D02*
X0461000Y0253927D01*
X0451000Y0253927D01*
X0466000Y0258927D02*
X0466000Y0333927D01*
X0451000Y0348927D01*
X0441000Y0348927D01*
X0431000Y0338927D01*
X0411000Y0338927D01*
X0406000Y0333927D01*
X0401000Y0338927D01*
X0381000Y0338927D01*
X0371000Y0348927D01*
X0361000Y0348927D01*
D19*
X0361000Y0348927D03*
X0451000Y0293927D03*
X0386000Y0268927D03*
X0351000Y0233927D03*
X0371000Y0228927D03*
X0366000Y0203927D03*
X0366000Y0183927D03*
X0366000Y0168927D03*
X0381000Y0163927D03*
X0391000Y0180177D03*
X0392250Y0203927D03*
X0401000Y0228927D03*
X0326000Y0223927D03*
X0291000Y0203927D03*
X0276000Y0193927D03*
X0256000Y0203927D03*
X0261000Y0213927D03*
X0246000Y0223927D03*
X0226000Y0238927D03*
X0226000Y0243927D03*
X0218500Y0251427D03*
X0212250Y0260177D03*
X0206000Y0253927D03*
X0191000Y0257677D03*
X0187250Y0265177D03*
X0182250Y0265177D03*
X0196000Y0267677D03*
X0203500Y0271427D03*
X0213500Y0273927D03*
X0198500Y0283927D03*
X0193500Y0281427D03*
X0183500Y0288927D03*
X0176000Y0278927D03*
X0166000Y0268927D03*
X0161000Y0268415D03*
X0157250Y0255177D03*
X0161000Y0248927D03*
X0169750Y0252677D03*
X0151000Y0243927D03*
X0166000Y0223927D03*
X0166000Y0218927D03*
X0171000Y0213927D03*
X0161000Y0208927D03*
X0171000Y0203927D03*
X0181000Y0198927D03*
X0184750Y0193927D03*
X0191000Y0193927D03*
X0196000Y0193927D03*
X0206000Y0193927D03*
X0226000Y0193927D03*
X0246000Y0191427D03*
X0281000Y0228927D03*
X0271000Y0238927D03*
X0286000Y0243927D03*
X0276000Y0258927D03*
X0276000Y0273927D03*
X0286000Y0273927D03*
X0326000Y0273927D03*
X0241000Y0253927D03*
X0241000Y0243927D03*
X0236000Y0263927D03*
X0193500Y0301427D03*
X0218500Y0326427D03*
X0151000Y0288927D03*
X0121000Y0283927D03*
X0121000Y0233927D03*
X0113500Y0211427D03*
X0086000Y0233927D03*
X0067250Y0243927D03*
X0081000Y0213927D03*
X0056000Y0198927D03*
X0061000Y0183927D03*
X0071000Y0173927D03*
X0071000Y0158927D03*
X0071000Y0138927D03*
X0096000Y0118927D03*
X0081000Y0098927D03*
X0106000Y0088927D03*
X0116000Y0098927D03*
X0141000Y0098927D03*
X0116000Y0073927D03*
X0166000Y0073927D03*
X0196000Y0123927D03*
X0166000Y0138927D03*
X0126000Y0183927D03*
X0181000Y0208927D03*
X0261000Y0118927D03*
X0248500Y0081427D03*
X0311000Y0073927D03*
X0341000Y0113927D03*
X0381000Y0103927D03*
X0381000Y0083927D03*
X0356000Y0073927D03*
X0411000Y0143927D03*
X0446000Y0163927D03*
X0301000Y0163927D03*
X0026000Y0198927D03*
X0016000Y0218927D03*
X0021000Y0173927D03*
X0021000Y0148927D03*
D20*
X0021000Y0173927D02*
X0061000Y0173927D01*
X0081000Y0193927D01*
X0286000Y0273927D02*
X0306000Y0253927D01*
X0351000Y0253927D01*
D21*
X0341000Y0273927D02*
X0381000Y0233927D01*
X0381000Y0188927D01*
X0376000Y0183927D01*
X0366000Y0183927D01*
X0326000Y0223927D02*
X0276000Y0273927D01*
X0271000Y0268927D02*
X0266000Y0273927D01*
X0213500Y0273927D01*
X0211000Y0273927D01*
X0208500Y0276427D01*
X0188500Y0276427D01*
X0186000Y0278927D01*
X0176000Y0278927D01*
X0181000Y0283927D02*
X0166000Y0298927D01*
X0086000Y0298927D01*
X0056000Y0328927D01*
X0051000Y0328927D01*
X0051000Y0338927D02*
X0061000Y0338927D01*
X0081000Y0318927D01*
X0163500Y0318927D01*
X0198500Y0283927D01*
X0193500Y0281427D02*
X0191000Y0283927D01*
X0181000Y0283927D01*
X0194750Y0268927D02*
X0166000Y0268927D01*
X0161000Y0268415D02*
X0161000Y0258927D01*
X0167250Y0252677D01*
X0169750Y0252677D01*
X0161000Y0248927D02*
X0169750Y0240177D01*
X0169750Y0221427D01*
X0168500Y0220177D01*
X0167250Y0220177D01*
X0166000Y0218927D01*
X0166000Y0223927D02*
X0146000Y0223927D01*
X0051000Y0318927D01*
X0121000Y0233927D02*
X0126000Y0233927D01*
X0166000Y0193927D01*
X0184750Y0193927D01*
X0187250Y0197677D02*
X0191000Y0193927D01*
X0196000Y0193927D02*
X0196000Y0233927D01*
X0191000Y0238927D01*
X0191000Y0257677D01*
X0187250Y0265177D02*
X0187250Y0197677D01*
X0181000Y0198927D02*
X0176000Y0198927D01*
X0171000Y0203927D01*
X0181000Y0208927D02*
X0161000Y0208927D01*
X0171000Y0213927D02*
X0178500Y0213927D01*
X0183500Y0218927D01*
X0183500Y0263927D01*
X0182250Y0265177D01*
X0194750Y0268927D02*
X0196000Y0267677D01*
X0203500Y0271427D02*
X0212250Y0260177D01*
X0208500Y0253927D02*
X0206000Y0253927D01*
X0208500Y0253927D02*
X0216000Y0246427D01*
X0216000Y0243927D01*
X0211000Y0238927D01*
X0206000Y0238927D01*
X0206000Y0193927D01*
X0221000Y0203927D02*
X0226000Y0198927D01*
X0226000Y0193927D01*
X0221000Y0203927D02*
X0221000Y0238927D01*
X0226000Y0238927D01*
X0226000Y0243927D02*
X0223500Y0246427D01*
X0223500Y0251427D01*
X0236000Y0263927D01*
X0241000Y0253927D02*
X0246000Y0248927D01*
X0246000Y0223927D01*
X0241000Y0213927D02*
X0241000Y0243927D01*
X0223500Y0251427D02*
X0218500Y0251427D01*
X0241000Y0213927D02*
X0246000Y0208927D01*
X0246000Y0191427D01*
X0256000Y0203927D02*
X0266000Y0203927D01*
X0276000Y0193927D01*
X0266000Y0213927D02*
X0261000Y0213927D01*
X0266000Y0213927D02*
X0281000Y0228927D01*
X0271000Y0238927D02*
X0271000Y0268927D01*
X0326000Y0273927D02*
X0341000Y0273927D01*
X0241000Y0133927D02*
X0236000Y0128927D01*
X0176000Y0128927D01*
X0166000Y0138927D01*
X0196000Y0123927D02*
X0101000Y0123927D01*
X0096000Y0118927D01*
X0116000Y0098927D02*
X0141000Y0098927D01*
X0151000Y0243927D02*
X0156000Y0253927D01*
X0157250Y0255177D01*
X0381000Y0083927D02*
X0391315Y0083927D01*
X0406315Y0068927D01*
D22*
X0366000Y0168927D02*
X0366000Y0173927D01*
X0371000Y0178927D01*
X0391000Y0180177D01*
X0291000Y0203927D02*
X0286000Y0203927D01*
X0276000Y0213927D01*
X0261000Y0213927D01*
X0286000Y0243927D02*
X0286000Y0248927D01*
X0276000Y0258927D01*
X0086000Y0233927D02*
X0081000Y0228927D01*
X0081000Y0213927D01*
D23*
X0311000Y0073927D02*
X0356000Y0073927D01*
X0361000Y0078927D01*
X0361000Y0088927D01*
X0376000Y0103927D01*
X0381000Y0103927D01*
D24*
X0106000Y0088927D02*
X0091000Y0088927D01*
X0081000Y0098927D01*
X0071000Y0069242D02*
X0070685Y0068927D01*
X0071000Y0069242D02*
X0071000Y0138927D01*
X0071000Y0158927D02*
X0070685Y0159242D01*
X0070685Y0163612D01*
X0071000Y0163927D01*
X0071000Y0173927D01*
D25*
X0091000Y0148927D02*
X0021000Y0148927D01*
X0091000Y0148927D02*
X0126000Y0183927D01*
X0116000Y0073927D02*
X0166000Y0073927D01*
D26*
X0261000Y0118927D02*
X0266000Y0123927D01*
X0296000Y0123927D01*
X0301000Y0128927D01*
X0301000Y0163927D01*
X0113500Y0211427D02*
X0096000Y0228927D01*
X0091000Y0228927D01*
X0086000Y0233927D01*
D27*
X0067250Y0243927D02*
X0046000Y0223927D01*
X0021000Y0223927D01*
X0016000Y0218927D01*
X0026000Y0198927D02*
X0046000Y0198927D01*
X0061000Y0183927D01*
X0341000Y0163927D02*
X0381000Y0163927D01*
M02*
