G75*
%MOIN*%
%OFA0B0*%
%FSLAX25Y25*%
%IPPOS*%
%LPD*%
%AMOC8*
5,1,8,0,0,1.08239X$1,22.5*
%
%ADD10C,0.13398*%
%ADD11C,0.11430*%
%ADD12C,0.14580*%
%ADD13C,0.10249*%
%ADD14C,0.08200*%
%ADD15C,0.04769*%
%ADD16C,0.07400*%
%ADD17R,0.07300X0.07300*%
%ADD18C,0.10574*%
%ADD19C,0.14643*%
%ADD20R,0.04762X0.04762*%
D10*
X0011000Y0063927D03*
X0016000Y0358927D03*
X0471000Y0358927D03*
X0471000Y0063927D03*
D11*
X0445685Y0068927D03*
X0426000Y0068927D03*
X0406315Y0068927D03*
X0263559Y0298927D03*
X0236000Y0298927D03*
X0208441Y0298927D03*
X0070685Y0068927D03*
X0051000Y0068927D03*
X0031315Y0068927D03*
D12*
X0158244Y0327667D03*
X0313756Y0327667D03*
D13*
X0326000Y0083927D03*
X0346000Y0083927D03*
X0346000Y0063927D03*
X0326000Y0063927D03*
X0286000Y0063927D03*
X0266000Y0063927D03*
X0266000Y0083927D03*
X0286000Y0083927D03*
X0206000Y0083927D03*
X0186000Y0083927D03*
X0186000Y0063927D03*
X0206000Y0063927D03*
X0146000Y0063927D03*
X0126000Y0063927D03*
X0126000Y0083927D03*
X0146000Y0083927D03*
D14*
X0146000Y0108927D03*
X0126000Y0108927D03*
X0326000Y0108927D03*
X0346000Y0108927D03*
X0051000Y0298927D03*
X0051000Y0308927D03*
X0051000Y0318927D03*
X0051000Y0328927D03*
X0051000Y0338927D03*
X0051000Y0348927D03*
D15*
X0201000Y0193927D03*
X0211000Y0193927D03*
X0221000Y0193927D03*
X0231000Y0193927D03*
X0241000Y0193927D03*
X0251000Y0193927D03*
X0261000Y0193927D03*
X0261000Y0133927D03*
X0251000Y0133927D03*
X0241000Y0133927D03*
X0231000Y0133927D03*
X0221000Y0133927D03*
X0211000Y0133927D03*
X0201000Y0133927D03*
D16*
X0351000Y0253927D03*
X0421000Y0253927D03*
D17*
X0451000Y0253927D03*
X0381000Y0253927D03*
D18*
X0108441Y0308927D03*
X0108441Y0327037D03*
X0108441Y0345148D03*
X0086000Y0345148D03*
X0086000Y0327037D03*
X0086000Y0308927D03*
D19*
X0366630Y0333927D03*
X0386315Y0353612D03*
X0406000Y0333927D03*
X0425685Y0353612D03*
X0445370Y0333927D03*
D20*
X0451000Y0293927D03*
X0386000Y0268927D03*
X0351000Y0233927D03*
X0371000Y0228927D03*
X0366000Y0203927D03*
X0366000Y0183927D03*
X0366000Y0168927D03*
X0381000Y0163927D03*
X0391000Y0180177D03*
X0392250Y0203927D03*
X0401000Y0228927D03*
X0326000Y0223927D03*
X0291000Y0203927D03*
X0276000Y0193927D03*
X0256000Y0203927D03*
X0261000Y0213927D03*
X0246000Y0223927D03*
X0226000Y0238927D03*
X0226000Y0243927D03*
X0218500Y0251427D03*
X0212250Y0260177D03*
X0206000Y0253927D03*
X0191000Y0257677D03*
X0187250Y0265177D03*
X0182250Y0265177D03*
X0196000Y0267677D03*
X0203500Y0271427D03*
X0213500Y0273927D03*
X0198500Y0283927D03*
X0193500Y0281427D03*
X0183500Y0288927D03*
X0176000Y0278927D03*
X0166000Y0268927D03*
X0161000Y0268415D03*
X0157250Y0255177D03*
X0161000Y0248927D03*
X0169750Y0252677D03*
X0151000Y0243927D03*
X0166000Y0223927D03*
X0166000Y0218927D03*
X0171000Y0213927D03*
X0161000Y0208927D03*
X0171000Y0203927D03*
X0181000Y0198927D03*
X0184750Y0193927D03*
X0191000Y0193927D03*
X0196000Y0193927D03*
X0206000Y0193927D03*
X0226000Y0193927D03*
X0246000Y0191427D03*
X0281000Y0228927D03*
X0271000Y0238927D03*
X0286000Y0243927D03*
X0276000Y0258927D03*
X0276000Y0273927D03*
X0286000Y0273927D03*
X0326000Y0273927D03*
X0241000Y0253927D03*
X0241000Y0243927D03*
X0236000Y0263927D03*
X0193500Y0301427D03*
X0218500Y0326427D03*
X0151000Y0288927D03*
X0121000Y0283927D03*
X0121000Y0233927D03*
X0113500Y0211427D03*
X0086000Y0233927D03*
X0067250Y0243927D03*
X0081000Y0213927D03*
X0056000Y0198927D03*
X0061000Y0183927D03*
X0071000Y0173927D03*
X0071000Y0158927D03*
X0071000Y0138927D03*
X0096000Y0118927D03*
X0081000Y0098927D03*
X0106000Y0088927D03*
X0116000Y0098927D03*
X0141000Y0098927D03*
X0116000Y0073927D03*
X0166000Y0073927D03*
X0196000Y0123927D03*
X0166000Y0138927D03*
X0126000Y0183927D03*
X0181000Y0208927D03*
X0261000Y0118927D03*
X0248500Y0081427D03*
X0311000Y0073927D03*
X0341000Y0113927D03*
X0381000Y0103927D03*
X0381000Y0083927D03*
X0356000Y0073927D03*
X0411000Y0143927D03*
X0446000Y0163927D03*
X0301000Y0163927D03*
X0361000Y0348927D03*
X0026000Y0198927D03*
X0016000Y0218927D03*
X0021000Y0173927D03*
X0021000Y0148927D03*
M02*
