%
M48
M72
T01C0.01969
T02C0.02362
T03C0.03150
T04C0.04000
T05C0.06299
T06C0.06516
T07C0.07087
T08C0.09843
T09C0.12598
T10C0.13780
%
T01
X201000Y133927
X211000Y133927
X221000Y133927
X231000Y133927
X241000Y133927
X251000Y133927
X261000Y133927
X261000Y193927
X251000Y193927
X241000Y193927
X231000Y193927
X221000Y193927
X211000Y193927
X201000Y193927
T02
X196000Y193927
X191000Y193927
X184750Y193927
X181000Y198927
X181000Y208927
X171000Y203927
X161000Y208927
X171000Y213927
X166000Y218927
X166000Y223927
X151000Y243927
X161000Y248927
X157250Y255177
X169750Y252677
X182250Y265177
X187250Y265177
X191000Y257677
X196000Y267677
X203500Y271427
X213500Y273927
X212250Y260177
X206000Y253927
X218500Y251427
X226000Y243927
X226000Y238927
X241000Y243927
X241000Y253927
X236000Y263927
X271000Y238927
X281000Y228927
X286000Y243927
X276000Y258927
X276000Y273927
X286000Y273927
X326000Y273927
X351000Y233927
X371000Y228927
X366000Y203927
X366000Y183927
X366000Y168927
X381000Y163927
X391000Y180177
X392250Y203927
X401000Y228927
X386000Y268927
X451000Y293927
X361000Y348927
X218500Y326427
X193500Y301427
X183500Y288927
X176000Y278927
X166000Y268927
X161000Y268415
X151000Y288927
X121000Y283927
X121000Y233927
X113500Y211427
X86000Y233927
X67250Y243927
X81000Y213927
X56000Y198927
X61000Y183927
X71000Y173927
X71000Y158927
X71000Y138927
X96000Y118927
X81000Y98927
X106000Y88927
X116000Y98927
X141000Y98927
X116000Y73927
X166000Y73927
X196000Y123927
X166000Y138927
X126000Y183927
X206000Y193927
X226000Y193927
X246000Y191427
X256000Y203927
X261000Y213927
X246000Y223927
X276000Y193927
X291000Y203927
X326000Y223927
X301000Y163927
X261000Y118927
X248500Y81427
X311000Y73927
X341000Y113927
X381000Y103927
X381000Y83927
X356000Y73927
X411000Y143927
X446000Y163927
X198500Y283927
X193500Y281427
X26000Y198927
X16000Y218927
X21000Y173927
X21000Y148927
T03
X126000Y108927
X146000Y108927
X326000Y108927
X346000Y108927
T04
X351000Y253927
X381000Y253927
X421000Y253927
X451000Y253927
X51000Y298927
X51000Y308927
X51000Y318927
X51000Y328927
X51000Y338927
X51000Y348927
T05
X126000Y83927
X146000Y83927
X146000Y63927
X126000Y63927
X186000Y63927
X206000Y63927
X206000Y83927
X186000Y83927
X266000Y83927
X286000Y83927
X286000Y63927
X266000Y63927
X326000Y63927
X346000Y63927
X346000Y83927
X326000Y83927
T06
X108441Y308927
X108441Y327037
X108441Y345148
X86000Y345148
X86000Y327037
X86000Y308927
T07
X208441Y298927
X236000Y298927
X263559Y298927
X406315Y68927
X426000Y68927
X445685Y68927
X70685Y68927
X51000Y68927
X31315Y68927
T08
X366630Y333927
X386315Y353612
X406000Y333927
X425685Y353612
X445370Y333927
T09
X11000Y63927
X16000Y358927
X471000Y358927
X471000Y63927
T10
X313756Y327667
X158244Y327667
M30
